<mxfile host="app.diagrams.net" agent="Mozilla/5.0 (X11; Linux x86_64) AppleWebKit/537.36 (KHTML, like Gecko) Chrome/136.0.0.0 Safari/537.36" version="27.0.6">
  <diagram name="Page-1" id="iAv6OHRh4U9Ya6-8Fw-7">
    <mxGraphModel dx="1389" dy="1080" grid="1" gridSize="10" guides="1" tooltips="1" connect="1" arrows="1" fold="1" page="1" pageScale="1" pageWidth="850" pageHeight="1100" math="0" shadow="0">
      <root>
        <mxCell id="0" />
        <mxCell id="1" parent="0" />
        <mxCell id="fUfNw3WkJRYjn5wtmbWA-1" value="Root" style="text;html=1;align=center;verticalAlign=middle;whiteSpace=wrap;rounded=0;" vertex="1" parent="1">
          <mxGeometry x="330" y="380" width="60" height="30" as="geometry" />
        </mxCell>
        <mxCell id="fUfNw3WkJRYjn5wtmbWA-2" value="" style="endArrow=none;html=1;rounded=0;entryX=0.5;entryY=1;entryDx=0;entryDy=0;align=left;" edge="1" parent="1" target="fUfNw3WkJRYjn5wtmbWA-1">
          <mxGeometry width="50" height="50" relative="1" as="geometry">
            <mxPoint x="360" y="620" as="sourcePoint" />
            <mxPoint x="530" y="500" as="targetPoint" />
          </mxGeometry>
        </mxCell>
        <mxCell id="fUfNw3WkJRYjn5wtmbWA-3" value="" style="endArrow=none;html=1;rounded=0;align=left;" edge="1" parent="1">
          <mxGeometry width="50" height="50" relative="1" as="geometry">
            <mxPoint x="360" y="440" as="sourcePoint" />
            <mxPoint x="390" y="440" as="targetPoint" />
          </mxGeometry>
        </mxCell>
        <mxCell id="fUfNw3WkJRYjn5wtmbWA-4" value="development" style="text;html=1;align=left;verticalAlign=middle;whiteSpace=wrap;rounded=0;" vertex="1" parent="1">
          <mxGeometry x="390" y="425" width="60" height="30" as="geometry" />
        </mxCell>
        <mxCell id="fUfNw3WkJRYjn5wtmbWA-5" value="" style="endArrow=none;html=1;rounded=0;align=left;" edge="1" parent="1">
          <mxGeometry width="50" height="50" relative="1" as="geometry">
            <mxPoint x="360" y="470" as="sourcePoint" />
            <mxPoint x="390" y="470" as="targetPoint" />
          </mxGeometry>
        </mxCell>
        <mxCell id="fUfNw3WkJRYjn5wtmbWA-6" value="microvm" style="text;html=1;align=left;verticalAlign=middle;whiteSpace=wrap;rounded=0;" vertex="1" parent="1">
          <mxGeometry x="390" y="455" width="60" height="30" as="geometry" />
        </mxCell>
        <mxCell id="fUfNw3WkJRYjn5wtmbWA-7" value="" style="endArrow=none;html=1;rounded=0;align=left;" edge="1" parent="1">
          <mxGeometry width="50" height="50" relative="1" as="geometry">
            <mxPoint x="360" y="499" as="sourcePoint" />
            <mxPoint x="390" y="499" as="targetPoint" />
          </mxGeometry>
        </mxCell>
        <mxCell id="fUfNw3WkJRYjn5wtmbWA-8" value="multimedia" style="text;html=1;align=left;verticalAlign=middle;whiteSpace=wrap;rounded=0;" vertex="1" parent="1">
          <mxGeometry x="390" y="485" width="60" height="30" as="geometry" />
        </mxCell>
        <mxCell id="fUfNw3WkJRYjn5wtmbWA-9" value="" style="endArrow=none;html=1;rounded=0;align=left;" edge="1" parent="1">
          <mxGeometry width="50" height="50" relative="1" as="geometry">
            <mxPoint x="360" y="530" as="sourcePoint" />
            <mxPoint x="390" y="530" as="targetPoint" />
          </mxGeometry>
        </mxCell>
        <mxCell id="fUfNw3WkJRYjn5wtmbWA-10" value="network" style="text;html=1;align=left;verticalAlign=middle;whiteSpace=wrap;rounded=0;" vertex="1" parent="1">
          <mxGeometry x="390" y="515" width="60" height="30" as="geometry" />
        </mxCell>
        <mxCell id="fUfNw3WkJRYjn5wtmbWA-11" value="" style="endArrow=none;html=1;rounded=0;align=left;" edge="1" parent="1">
          <mxGeometry width="50" height="50" relative="1" as="geometry">
            <mxPoint x="360" y="560" as="sourcePoint" />
            <mxPoint x="390" y="560" as="targetPoint" />
          </mxGeometry>
        </mxCell>
        <mxCell id="fUfNw3WkJRYjn5wtmbWA-12" value="platform" style="text;html=1;align=left;verticalAlign=middle;whiteSpace=wrap;rounded=0;" vertex="1" parent="1">
          <mxGeometry x="390" y="545" width="60" height="30" as="geometry" />
        </mxCell>
        <mxCell id="fUfNw3WkJRYjn5wtmbWA-13" value="" style="endArrow=none;html=1;rounded=0;align=left;" edge="1" parent="1">
          <mxGeometry width="50" height="50" relative="1" as="geometry">
            <mxPoint x="360" y="590" as="sourcePoint" />
            <mxPoint x="390" y="590" as="targetPoint" />
          </mxGeometry>
        </mxCell>
        <mxCell id="fUfNw3WkJRYjn5wtmbWA-14" value="utils" style="text;html=1;align=left;verticalAlign=middle;whiteSpace=wrap;rounded=0;" vertex="1" parent="1">
          <mxGeometry x="390" y="575" width="60" height="30" as="geometry" />
        </mxCell>
        <mxCell id="fUfNw3WkJRYjn5wtmbWA-15" value="" style="endArrow=none;html=1;rounded=0;align=left;" edge="1" parent="1">
          <mxGeometry width="50" height="50" relative="1" as="geometry">
            <mxPoint x="360" y="620" as="sourcePoint" />
            <mxPoint x="390" y="620" as="targetPoint" />
          </mxGeometry>
        </mxCell>
        <mxCell id="fUfNw3WkJRYjn5wtmbWA-16" value="vendor" style="text;html=1;align=left;verticalAlign=middle;whiteSpace=wrap;rounded=0;" vertex="1" parent="1">
          <mxGeometry x="390" y="605" width="60" height="30" as="geometry" />
        </mxCell>
        <mxCell id="fUfNw3WkJRYjn5wtmbWA-17" value="" style="endArrow=none;html=1;rounded=0;entryX=0.5;entryY=1;entryDx=0;entryDy=0;align=left;" edge="1" parent="1" target="fUfNw3WkJRYjn5wtmbWA-1">
          <mxGeometry width="50" height="50" relative="1" as="geometry">
            <mxPoint x="360" y="620" as="sourcePoint" />
            <mxPoint x="360" y="410" as="targetPoint" />
          </mxGeometry>
        </mxCell>
      </root>
    </mxGraphModel>
  </diagram>
</mxfile>
